<svg version="1.1" id="Layer_1" xmlns="http://www.w3.org/2000/svg" xmlns:xlink="http://www.w3.org/1999/xlink" x="0px" y="0px"
	 width="100%" viewBox="0 0 64 64" enable-background="new 0 0 64 64" xml:space="preserve">
<path fill="#010203" opacity="1.000000" stroke="none" 
	d="
M39.000011,65.000000 
	C26.024467,65.000000 13.548928,65.000000 1.036694,65.000000 
	C1.036694,43.732925 1.036694,22.465776 1.036694,1.099313 
	C22.224968,1.099313 43.450554,1.099313 64.838074,1.099313 
	C64.838074,22.332338 64.838074,43.666061 64.838074,65.000000 
	C56.466721,65.000000 47.983368,65.000000 39.000011,65.000000 
M16.286745,34.269119 
	C14.065491,35.145077 11.844237,36.021038 9.387594,36.989826 
	C12.012660,39.345150 13.987424,41.116997 15.262629,43.067944 
	C13.419168,44.128670 11.575706,45.189400 9.122217,46.601139 
	C16.998682,51.673798 24.344196,56.448189 31.763702,61.104683 
	C32.396290,61.501690 33.731571,61.448330 34.386208,61.038460 
	C41.771133,56.414711 49.086758,51.680279 57.483852,46.293728 
	C53.888050,44.870075 51.492928,43.921795 49.217953,42.294846 
	C51.598518,40.816498 53.979088,39.338154 56.554588,37.738750 
	C54.510963,35.963211 52.780418,34.459679 51.230591,32.275578 
	C52.933880,31.059208 54.637169,29.842838 56.346504,28.622152 
	C54.316704,26.869875 52.670517,25.448761 51.642090,23.723928 
	C53.005119,22.128578 54.368145,20.533228 55.907917,18.731007 
	C48.516861,13.978620 40.738045,8.976908 33.001152,4.002154 
	C24.988325,9.180188 17.302940,14.146622 9.413367,19.245007 
	C12.602113,21.541683 15.152867,23.378851 16.846476,25.287079 
	C14.429362,26.065256 12.012248,26.843433 8.983057,27.818665 
	C12.276524,30.381842 14.652135,32.230690 16.286745,34.269119 
z"/>
<path fill="#C2E8F7" opacity="1.000000" stroke="none" 
	d="
M17.703621,25.216021 
	C15.152867,23.378851 12.602113,21.541683 9.413367,19.245007 
	C17.302940,14.146622 24.988325,9.180188 33.001152,4.002154 
	C40.738045,8.976908 48.516861,13.978620 55.907917,18.731007 
	C54.368145,20.533228 53.005119,22.128578 51.032433,23.991470 
	C47.047485,26.451511 43.809002,28.908331 40.251835,30.749434 
	C37.602451,32.120689 33.999138,34.154224 31.772537,33.327904 
	C26.768593,31.470869 22.356583,28.018812 17.703621,25.216021 
z"/>
<path fill="#5ED2F0" opacity="1.000000" stroke="none" 
	d="
M15.962188,42.888844 
	C13.987424,41.116997 12.012660,39.345150 9.387594,36.989826 
	C11.844237,36.021038 14.065491,35.145077 16.610081,34.144150 
	C16.933418,34.019184 16.974686,33.913597 16.844086,34.240639 
	C17.136045,34.704609 17.558607,34.841534 18.299603,35.123322 
	C22.357956,37.594265 26.137714,39.859428 29.822613,42.269623 
	C31.978786,43.679924 33.629181,43.826481 35.991539,42.174492 
	C40.805611,38.808025 46.007668,35.996380 51.049873,32.956146 
	C52.780418,34.459679 54.510963,35.963211 56.554588,37.738750 
	C53.979088,39.338154 51.598518,40.816498 48.965382,42.918793 
	C44.638855,46.075920 40.347435,48.327049 36.567421,51.241470 
	C34.049103,53.183113 32.232716,52.818047 29.914228,51.362114 
	C25.306810,48.468800 20.617601,45.705730 15.962188,42.888844 
z"/>
<path fill="#93DEF3" opacity="1.000000" stroke="none" 
	d="
M51.140232,32.615860 
	C46.007668,35.996380 40.805611,38.808025 35.991539,42.174492 
	C33.629181,43.826481 31.978786,43.679924 29.822613,42.269623 
	C26.137714,39.859428 22.357956,37.594265 18.261803,34.842159 
	C17.595274,34.248623 17.284981,34.081108 16.974686,33.913597 
	C16.974686,33.913597 16.933418,34.019184 16.980583,34.049362 
	C14.652135,32.230690 12.276524,30.381842 8.983057,27.818665 
	C12.012248,26.843433 14.429362,26.065256 17.275047,25.251549 
	C22.356583,28.018812 26.768593,31.470869 31.772537,33.327904 
	C33.999138,34.154224 37.602451,32.120689 40.251835,30.749434 
	C43.809002,28.908331 47.047485,26.451511 50.723549,24.143330 
	C52.670517,25.448761 54.316704,26.869875 56.346504,28.622152 
	C54.637169,29.842838 52.933880,31.059208 51.140232,32.615860 
z"/>
<path fill="#01B7EE" opacity="1.000000" stroke="none" 
	d="
M15.612408,42.978394 
	C20.617601,45.705730 25.306810,48.468800 29.914228,51.362114 
	C32.232716,52.818047 34.049103,53.183113 36.567421,51.241470 
	C40.347435,48.327049 44.638855,46.075920 48.905308,43.258133 
	C51.492928,43.921795 53.888050,44.870075 57.483852,46.293728 
	C49.086758,51.680279 41.771133,56.414711 34.386208,61.038460 
	C33.731571,61.448330 32.396290,61.501690 31.763702,61.104683 
	C24.344196,56.448189 16.998682,51.673798 9.122217,46.601139 
	C11.575706,45.189400 13.419168,44.128670 15.612408,42.978394 
z"/>
<path fill="#010203" opacity="1.000000" stroke="none" 
	d="
M16.844086,34.240639 
	C17.284981,34.081108 17.595274,34.248623 17.943367,34.697296 
	C17.558607,34.841534 17.136045,34.704609 16.844086,34.240639 
z"/>
</svg>